<?xml version="1.0" encoding="UTF-8"?> <svg xmlns="http://www.w3.org/2000/svg" width="410" height="165" viewBox="0 0 410 165" fill="none"> <path fill-rule="evenodd" clip-rule="evenodd" d="M295.968 14.5651C298.626 15.5169 300.706 17.1311 301.158 20.0059C301.334 21.1259 301.29 22.2774 301.244 23.4433L301.244 23.4461V23.4466V23.4471V23.4476C301.223 23.978 301.203 24.5113 301.203 25.0459C290.534 21.5004 288.169 20.9883 279.916 22.1961C266.863 24.1052 260.323 33.5646 262.635 46.2273C264.057 54.0085 271.778 60.6042 281.835 61.1553C290.81 61.6478 298.977 59.6803 304.684 51.668C304.717 51.9424 304.742 52.1878 304.764 52.4135V52.4137V52.414C304.808 52.8452 304.844 53.2042 304.921 53.5549C305.504 56.2266 306.728 58.4891 309.386 59.7109C314.114 61.8872 318.888 61.2833 323.538 60.1367V50.8665C318.827 50.1847 318.414 49.745 318.119 45.2421C318.066 44.3988 317.96 42.5899 317.96 41.7439V22.2629C317.96 22.2629 317.976 19.0207 317.578 16.8778C315.96 8.206 310.103 3.49161 301.761 1.42663C293.851 -0.529814 285.851 -0.309958 277.869 1.09545C274.137 1.75502 270.506 2.73464 266.888 4.49349C267.63 8.49265 268.364 12.4473 269.125 16.5717C273.236 14.4566 277.501 13.5827 281.91 13.2265C286.683 12.8397 291.405 12.9287 295.968 14.5651ZM291.77 32.8995C295.025 33.303 298.137 34.2687 300.876 36.1083C301.359 41.4322 299.434 44.6604 294.52 46.7059C291.781 47.8442 288.905 48.2839 285.941 48.0056C282.864 47.7217 280.254 45.7625 279.514 43.2606C278.549 40.0073 279.545 36.8513 282.178 34.8643C285.048 32.6991 288.387 32.4793 291.77 32.8995ZM71.1422 53.3601C77.5098 58.8509 85.1826 61.2749 93.7173 61.2248C102.414 61.1358 110.181 58.6673 116.516 52.7423C123.653 46.0659 125.957 37.6974 125.441 28.4078C124.855 17.8463 120.105 9.5502 110.488 4.25416C102.863 0.0574085 94.5764 -0.922205 85.9664 0.822732C79.1107 2.21145 73.2368 5.26717 68.6209 10.4018C63.4749 16.1292 61.4222 22.9086 61.3608 30.3614C61.2911 39.3449 64.0802 47.2709 71.1422 53.3601ZM79.6825 25.1127C81.6209 18.94 86.6943 15.1914 93.9237 15.0188C99.1645 15.08 103.627 17.3844 106.132 22.5357C109.057 28.5497 108.988 34.6222 105.32 40.3079C102.096 45.3006 97.028 47.1902 91.129 46.2969C85.3053 45.4119 81.4815 42.0194 79.755 36.4952C78.5668 32.6908 78.4915 28.9171 79.6825 25.1127ZM223.129 36.1793H214.762V61.2262L198.027 61.1733V0.000339749H214.762V22.2643C215.904 22.2594 217.042 22.3258 218.169 22.3915C220.893 22.5504 223.55 22.7054 226.036 21.8413C230.523 20.28 233.664 17.1992 234.927 12.5878C235.053 12.1299 235.178 11.6856 235.3 11.2496L235.3 11.2495C236.259 7.83812 237.075 4.93553 237.075 0.000339749H253.241C253.581 12.5795 251.132 23.6586 239.348 30.5632C239.493 30.839 239.629 31.1042 239.761 31.3608L239.761 31.3623L239.762 31.3627L239.762 31.3636L239.763 31.3647C240.049 31.9246 240.315 32.4434 240.611 32.9426C242.329 35.8717 244.05 38.7983 245.77 41.725C248.896 47.0403 252.021 52.3557 255.126 57.6862C255.512 58.3492 255.784 59.0823 256.091 59.9079L256.091 59.9082L256.091 59.9084L256.091 59.9086C256.246 60.3236 256.408 60.7618 256.599 61.2262H238.45C234.517 54.2526 230.517 47.1606 226.514 40.0639L224.496 36.4854L223.129 36.1793ZM186.872 0.000339749H170.316L170.118 25.064C166.074 27.6243 163.803 28.5706 159.913 28.5149C153.612 28.4231 147.825 23.2523 147.825 16.6983V2.78333V0.000339749H131.088C131.088 8.34898 131.09 16.6983 131.938 22.8376C132.786 28.9852 135.589 34.4037 140.375 38.4446C146.564 43.6683 153.79 44.6006 161.38 43.5765C163.337 43.3118 165.264 42.8186 167.263 42.3071L167.263 42.3071L167.263 42.307C168.207 42.0655 169.167 41.8198 170.154 41.5922V61.2262H186.872V0.000339749ZM36.2585 61.2262H19.5238V16.6983H0V0.000339749H55.7823V16.6983H36.2585V61.2262ZM399.767 125.693H396.066V111.969H399.963V120.055L406.299 111.969H410V125.693H406.103V117.607L399.767 125.693ZM408.065 105.754C408.037 108.724 405.823 110.457 403.019 110.457C400.159 110.457 397.972 108.724 397.944 105.754H400.916C400.916 106.964 401.701 107.761 402.991 107.761C404.252 107.761 405.037 106.964 405.066 105.754H408.065ZM8.80353 112.849C6.56059 112.849 4.71017 113.812 3.5887 115.187C3.8679 111.129 7.54777 110.519 11.9658 109.787C12.4279 109.71 12.8982 109.632 13.3735 109.549V105.946C4.28962 107.431 0 109.742 0 117.112C0 122.365 2.60741 126.051 7.68206 126.051C11.8035 126.051 14.9996 123.19 14.9996 118.982C14.9996 115.242 12.3642 112.849 8.80353 112.849ZM7.65402 122.778C5.32698 122.778 3.92514 121.128 3.86907 118.157C4.62606 117.002 6.16808 116.067 7.79421 116.067C9.72874 116.067 11.1025 117.305 11.1025 119.258C11.1025 121.293 9.67267 122.778 7.65402 122.778ZM31.2434 122.695C30.6827 122.695 30.2621 122.365 30.2621 121.65V117.002C30.2621 113.537 27.4865 111.612 23.5894 111.612C21.01 111.612 19.4119 112.189 18.4026 112.712V115.957C19.496 115.325 21.2343 114.802 22.6361 114.802C24.4305 114.802 26.337 115.16 26.337 117.387V117.8C25.4118 117.332 24.2062 116.947 22.2997 116.947C19.5521 116.947 16.7765 118.35 16.7765 121.458C16.7765 124.263 18.9353 126.051 21.9352 126.051C24.2623 126.051 25.8043 125.143 26.7575 124.18C27.2902 125.391 28.4958 125.941 29.9257 125.941C30.6827 125.941 31.5799 125.721 32.0565 125.363V122.53C31.8042 122.668 31.4957 122.695 31.2434 122.695ZM26.337 121.65C25.6921 122.475 24.4866 123.053 23.1688 123.053C21.795 123.053 20.6736 122.53 20.6736 121.265C20.6736 120.083 21.795 119.478 23.4212 119.478C24.5426 119.478 25.58 119.78 26.337 120.275V121.65ZM39.0188 125.693H35.0656V111.969H39.0188V117.057H44.7663V111.969H48.7195V125.693H44.7663V120.303H39.0188V125.693ZM52.5886 125.693H56.5417V119.78L62.065 125.693H67.1677L60.1304 118.157L66.2144 111.969H61.3641L56.5417 116.975V111.969H52.5886V125.693ZM78.9569 129.186H75.1719V122.448H76.9663C78.0036 120.88 78.5924 118.542 78.6485 114.637L78.7046 111.969H90.48V122.448H92.779V129.186H89.0501V125.693H78.9569V129.186ZM82.2372 115.215C82.2372 117.635 81.9848 120.11 81.0036 122.448H86.6109V115.215H82.2372ZM101.647 115.215H105.965V125.693H109.918V111.969H97.8344L97.7502 116.012C97.6661 120.028 97.4138 122.503 95.4793 122.503C95.1428 122.503 94.9185 122.475 94.6662 122.393V125.556C95.0868 125.776 95.6194 125.803 96.1521 125.803C100.778 125.803 101.451 121.265 101.591 117.14L101.647 115.215ZM116.978 125.693H112.548L116.305 120.468C114.539 119.835 113.53 118.46 113.53 116.425C113.53 114.06 115.128 111.969 119.025 111.969H126.539V125.693H122.586V121.155H120.202L116.978 125.693ZM117.567 116.672C117.567 117.745 118.352 118.35 119.67 118.35H122.586V114.995H119.67C118.352 114.995 117.567 115.6 117.567 116.672ZM137.575 125.693H141.528V115.215H147.107V125.693H151.061V111.969H137.575V125.693ZM158.887 113.647C159.672 112.629 161.13 111.612 163.485 111.612C167.354 111.612 170.073 114.802 170.073 118.845C170.073 122.86 167.354 126.051 163.485 126.051C161.13 126.051 159.672 125.006 158.887 124.015V131.194H154.934V111.969H158.887V113.647ZM166.148 118.845C166.148 116.672 164.578 114.995 162.363 114.995C160.737 114.995 159.475 115.957 158.887 117.057V120.633C159.475 121.705 160.737 122.668 162.363 122.668C164.578 122.668 166.148 120.99 166.148 118.845ZM179.818 126.051C181.976 126.051 183.995 125.501 185.145 124.648V121.54C183.883 122.255 182.341 122.75 180.659 122.75C178.276 122.75 176.397 121.843 175.977 119.89H186.014V118.872C186.014 114.967 183.575 111.612 179.341 111.612C174.911 111.612 172.051 114.83 172.051 118.817C172.051 123.3 175.584 126.051 179.818 126.051ZM175.977 117.415C176.145 115.847 177.322 114.665 179.173 114.665C180.995 114.665 182.061 115.985 182.117 117.415H175.977ZM191.46 129.186H187.675V122.448H189.469C190.506 120.88 191.095 118.542 191.151 114.637L191.207 111.969H202.983V122.448H205.282V129.186H201.553V125.693H191.46V129.186ZM194.74 115.215C194.74 117.635 194.488 120.11 193.506 122.448H199.114V115.215H194.74ZM207.995 125.693H211.948V115.215H217.528V125.693H221.481V111.969H207.995V125.693ZM229.307 113.647C230.092 112.629 231.55 111.612 233.905 111.612C237.774 111.612 240.494 114.802 240.494 118.845C240.494 122.86 237.774 126.051 233.905 126.051C231.55 126.051 230.092 125.006 229.307 124.015V131.194H225.354V111.969H229.307V113.647ZM236.569 118.845C236.569 116.672 234.999 114.995 232.784 114.995C231.158 114.995 229.896 115.957 229.307 117.057V120.633C229.896 121.705 231.158 122.668 232.784 122.668C234.999 122.668 236.569 120.99 236.569 118.845ZM243.397 125.693H247.098L253.434 117.607V125.693H257.331V111.969H253.63L247.294 120.055V111.969H243.397V125.693ZM265.147 125.693H261.194V111.969H265.147V117.057H270.895V111.969H274.848V125.693H270.895V120.303H265.147V125.693ZM278.717 125.693H282.418L288.754 117.607V125.693H292.651V111.969H288.95L282.614 120.055V111.969H278.717V125.693ZM300.242 125.693H296.513V111.969H300.411L304.476 117.085L308.569 111.969H312.466V125.693H308.738V117.222L305.261 121.485H303.691L300.242 117.222V125.693ZM329.654 122.695C329.093 122.695 328.672 122.365 328.672 121.65V117.002C328.672 113.537 325.897 111.612 322 111.612C319.42 111.612 317.822 112.189 316.813 112.712V115.957C317.906 115.325 319.645 114.802 321.047 114.802C322.841 114.802 324.747 115.16 324.747 117.387V117.8C323.822 117.332 322.617 116.947 320.71 116.947C317.962 116.947 315.187 118.35 315.187 121.458C315.187 124.263 317.346 126.051 320.346 126.051C322.673 126.051 324.215 125.143 325.168 124.18C325.701 125.391 326.906 125.941 328.336 125.941C329.093 125.941 329.99 125.721 330.467 125.363V122.53C330.215 122.668 329.906 122.695 329.654 122.695ZM324.747 121.65C324.103 122.475 322.897 123.053 321.579 123.053C320.205 123.053 319.084 122.53 319.084 121.265C319.084 120.083 320.205 119.478 321.832 119.478C322.953 119.478 323.99 119.78 324.747 120.275V121.65ZM339.413 125.693H335.46V115.215H331.086V111.969H343.843V115.215H339.413V125.693ZM353.021 126.051C355.18 126.051 357.199 125.501 358.348 124.648V121.54C357.086 122.255 355.544 122.75 353.862 122.75C351.479 122.75 349.601 121.843 349.18 119.89H359.217V118.872C359.217 114.967 356.778 111.612 352.544 111.612C348.115 111.612 345.255 114.83 345.255 118.817C345.255 123.3 348.788 126.051 353.021 126.051ZM349.18 117.415C349.348 115.847 350.526 114.665 352.376 114.665C354.199 114.665 355.264 115.985 355.32 117.415H349.18ZM372.177 115.215H367.859L367.803 117.14C367.663 121.265 366.99 125.803 362.364 125.803C361.831 125.803 361.299 125.776 360.878 125.556V122.393C361.13 122.475 361.355 122.503 361.691 122.503C363.626 122.503 363.878 120.028 363.962 116.012L364.046 111.969H376.13V125.693H372.177V115.215ZM386.835 126.051C388.994 126.051 391.012 125.501 392.162 124.648V121.54C390.9 122.255 389.358 122.75 387.676 122.75C385.293 122.75 383.414 121.843 382.994 119.89H393.031V118.872C393.031 114.967 390.592 111.612 386.358 111.612C381.928 111.612 379.069 114.83 379.069 118.817C379.069 123.3 382.601 126.051 386.835 126.051ZM382.994 117.415C383.162 115.847 384.34 114.665 386.19 114.665C388.012 114.665 389.078 115.985 389.134 117.415H382.994ZM0.841102 158.696H4.54195L10.8782 150.61V158.696H14.7754V144.972H11.0745L4.73821 153.058V144.972H0.841102V158.696ZM29.7645 158.696H25.8113V144.972H39.297V158.696H35.3438V148.218H29.7645V158.696ZM51.7212 144.615C49.3661 144.615 47.9082 145.632 47.1232 146.65V144.972H43.17V164.197H47.1232V157.018C47.9082 158.009 49.3661 159.054 51.7212 159.054C55.5902 159.054 58.3098 155.863 58.3098 151.848C58.3098 147.805 55.5902 144.615 51.7212 144.615ZM50.5997 147.998C52.8146 147.998 54.3847 149.675 54.3847 151.848C54.3847 153.993 52.8146 155.671 50.5997 155.671C48.9736 155.671 47.7119 154.708 47.1232 153.636V150.06C47.7119 148.96 48.9736 147.998 50.5997 147.998ZM73.3811 157.651C72.2316 158.504 70.2129 159.054 68.0541 159.054C63.8206 159.054 60.2879 156.303 60.2879 151.82C60.2879 147.833 63.1477 144.615 67.5775 144.615C71.811 144.615 74.2502 147.97 74.2502 151.876V152.893H64.2131C64.6336 154.846 66.5121 155.753 68.8952 155.753C70.5774 155.753 72.1194 155.258 73.3811 154.543V157.651ZM67.4092 147.668C65.5588 147.668 64.3813 148.85 64.2131 150.418H70.3531C70.297 148.988 69.2316 147.668 67.4092 147.668ZM75.9112 162.189H79.6961V158.696H89.7894V162.189H93.5182V155.451H91.2192V144.972H79.4438L79.3877 147.64C79.3316 151.545 78.7429 153.883 77.7055 155.451H75.9112V162.189ZM81.7428 155.451C82.7241 153.113 82.9764 150.638 82.9764 148.218H87.3502V155.451H81.7428ZM100.185 158.696H96.2317V144.972H109.717V158.696H105.764V148.218H100.185V158.696ZM122.142 144.615C119.786 144.615 118.329 145.632 117.544 146.65V144.972H113.59V164.197H117.544V157.018C118.329 158.009 119.786 159.054 122.142 159.054C126.011 159.054 128.73 155.863 128.73 151.848C128.73 147.805 126.011 144.615 122.142 144.615ZM121.02 147.998C123.235 147.998 124.805 149.675 124.805 151.848C124.805 153.993 123.235 155.671 121.02 155.671C119.394 155.671 118.132 154.708 117.544 153.636V150.06C118.132 148.96 119.394 147.998 121.02 147.998ZM135.334 158.696H131.633V144.972H135.531V153.058L141.867 144.972H145.568V158.696H141.671V150.61L135.334 158.696ZM148.197 158.696H152.626L155.851 154.158H158.234V158.696H162.187V144.972H154.673C150.776 144.972 149.178 147.063 149.178 149.428C149.178 151.463 150.187 152.838 151.954 153.471L148.197 158.696ZM155.318 151.353C154 151.353 153.215 150.748 153.215 149.675C153.215 148.603 154 147.998 155.318 147.998H158.234V151.353H155.318ZM172.863 158.696H168.909V148.218H164.536V144.972H177.292V148.218H172.863V158.696ZM179.63 158.696H183.331L189.667 150.61V158.696H193.564V144.972H189.863L183.527 153.058V144.972H179.63V158.696ZM201.128 158.696H197.427V144.972H201.324V153.058L207.66 144.972H211.361V158.696H207.464V150.61L201.128 158.696ZM209.426 138.757C209.398 141.727 207.183 143.46 204.38 143.46C201.52 143.46 199.333 141.727 199.305 138.757H202.277C202.277 139.967 203.062 140.764 204.352 140.764C205.613 140.764 206.398 139.967 206.426 138.757H209.426Z" fill="#333333"></path> </svg> 